<svg width="960" height="540" viewBox="0 0 960 540" fill="none" xmlns="http://www.w3.org/2000/svg">
  <rect width="960" height="540" rx="36" fill="#EEF7F2"/>
  <circle cx="180" cy="124" r="48" fill="#D9F0E2"/>
  <circle cx="796" cy="118" r="36" fill="#D9F0E2"/>
  <path d="M463 112C489.667 112 513.333 125.333 534 152L603 243C621 266.333 630 290 630 314C630 346.667 616.667 374.333 590 397C564 419 532.333 430 495 430H463C425.667 430 393.667 419 367 397C341 374.333 328 346.667 328 314C328 290 337 266.333 355 243L424 152C444.667 125.333 457.667 112 463 112Z" fill="#48A67A"/>
  <path d="M480 146L540 271H509V340H451V271H420L480 146Z" fill="#F9FFF9"/>
  <path d="M348 382C393 344.667 437 326 480 326C523 326 567 344.667 612 382" stroke="#2F6B4E" stroke-width="16" stroke-linecap="round"/>
  <text x="480" y="478" text-anchor="middle" fill="#2F6B4E" font-family="Trebuchet MS, sans-serif" font-size="38" font-weight="700">Strong Progress</text>
</svg>
