<svg width="960" height="540" viewBox="0 0 960 540" fill="none" xmlns="http://www.w3.org/2000/svg">
  <rect width="960" height="540" rx="36" fill="#FFF9E8"/>
  <circle cx="198" cy="126" r="44" fill="#FFEAB2"/>
  <circle cx="752" cy="108" r="34" fill="#FFEAB2"/>
  <path d="M486 112L527.532 206.468L630 217.055L553 286.742L575.064 388L486 338.47L396.936 388L419 286.742L342 217.055L444.468 206.468L486 112Z" fill="#F6BC3A"/>
  <path d="M486 166L512.413 226.552L578.595 233.001L528.791 278.209L543.717 343.999L486 311.235L428.283 343.999L443.209 278.209L393.405 233.001L459.587 226.552L486 166Z" fill="#FFF8DF"/>
  <path d="M282 386C345.333 347.333 413.333 328 486 328C558.667 328 626.667 347.333 690 386" stroke="#C78E1C" stroke-width="16" stroke-linecap="round"/>
  <text x="480" y="476" text-anchor="middle" fill="#9F6C0D" font-family="Trebuchet MS, sans-serif" font-size="38" font-weight="700">Excellent Momentum</text>
</svg>
